<svg height="1422" width="720" xmlns="http://www.w3.org/2000/svg">
<rect height="1422" fill="#555" width="720"></rect>
<text fill="#7f7" font-family="Courier New" font-size="12" xml:space="preserve">
<tspan x="10" y="26">12 megabytes installed</tspan>
<tspan x="10" y="42"></tspan>
<tspan x="10" y="58">node_modules</tspan>
<tspan x="10" y="74">└─┬ swagger-jsdoc@1.9.2 </tspan>
<tspan x="10" y="90">  ├─┬ chokidar@1.6.1 </tspan>
<tspan x="10" y="106">  │ ├─┬ anymatch@1.3.0 </tspan>
<tspan x="10" y="122">  │ │ ├── arrify@1.0.1 </tspan>
<tspan x="10" y="138">  │ │ └─┬ micromatch@2.3.11 </tspan>
<tspan x="10" y="154">  │ │   ├─┬ arr-diff@2.0.0 </tspan>
<tspan x="10" y="170">  │ │   │ └── arr-flatten@1.0.3 </tspan>
<tspan x="10" y="186">  │ │   ├── array-unique@0.2.1 </tspan>
<tspan x="10" y="202">  │ │   ├─┬ braces@1.8.5 </tspan>
<tspan x="10" y="218">  │ │   │ ├─┬ expand-range@1.8.2 </tspan>
<tspan x="10" y="234">  │ │   │ │ └─┬ fill-range@2.2.3 </tspan>
<tspan x="10" y="250">  │ │   │ │   ├── is-number@2.1.0 </tspan>
<tspan x="10" y="266">  │ │   │ │   ├── isobject@2.1.0 </tspan>
<tspan x="10" y="282">  │ │   │ │   ├── randomatic@1.1.6 </tspan>
<tspan x="10" y="298">  │ │   │ │   └── repeat-string@1.6.1 </tspan>
<tspan x="10" y="314">  │ │   │ ├── preserve@0.2.0 </tspan>
<tspan x="10" y="330">  │ │   │ └── repeat-element@1.1.2 </tspan>
<tspan x="10" y="346">  │ │   ├─┬ expand-brackets@0.1.5 </tspan>
<tspan x="10" y="362">  │ │   │ └── is-posix-bracket@0.1.1 </tspan>
<tspan x="10" y="378">  │ │   ├── extglob@0.3.2 </tspan>
<tspan x="10" y="394">  │ │   ├── filename-regex@2.0.0 </tspan>
<tspan x="10" y="410">  │ │   ├─┬ kind-of@3.1.0 </tspan>
<tspan x="10" y="426">  │ │   │ └── is-buffer@1.1.5 </tspan>
<tspan x="10" y="442">  │ │   ├─┬ normalize-path@2.1.1 </tspan>
<tspan x="10" y="458">  │ │   │ └── remove-trailing-separator@1.0.1 </tspan>
<tspan x="10" y="474">  │ │   ├─┬ object.omit@2.0.1 </tspan>
<tspan x="10" y="490">  │ │   │ ├─┬ for-own@0.1.5 </tspan>
<tspan x="10" y="506">  │ │   │ │ └── for-in@1.0.2 </tspan>
<tspan x="10" y="522">  │ │   │ └── is-extendable@0.1.1 </tspan>
<tspan x="10" y="538">  │ │   ├─┬ parse-glob@3.0.4 </tspan>
<tspan x="10" y="554">  │ │   │ ├── glob-base@0.3.0 </tspan>
<tspan x="10" y="570">  │ │   │ └── is-dotfile@1.0.2 </tspan>
<tspan x="10" y="586">  │ │   └─┬ regex-cache@0.4.3 </tspan>
<tspan x="10" y="602">  │ │     ├── is-equal-shallow@0.1.3 </tspan>
<tspan x="10" y="618">  │ │     └── is-primitive@2.0.0 </tspan>
<tspan x="10" y="634">  │ ├── async-each@1.0.1 </tspan>
<tspan x="10" y="650">  │ ├── glob-parent@2.0.0 </tspan>
<tspan x="10" y="666">  │ ├── inherits@2.0.3 </tspan>
<tspan x="10" y="682">  │ ├─┬ is-binary-path@1.0.1 </tspan>
<tspan x="10" y="698">  │ │ └── binary-extensions@1.8.0 </tspan>
<tspan x="10" y="714">  │ ├─┬ is-glob@2.0.1 </tspan>
<tspan x="10" y="730">  │ │ └── is-extglob@1.0.0 </tspan>
<tspan x="10" y="746">  │ ├── path-is-absolute@1.0.1 </tspan>
<tspan x="10" y="762">  │ └─┬ readdirp@2.1.0 </tspan>
<tspan x="10" y="778">  │   ├── graceful-fs@4.1.11 </tspan>
<tspan x="10" y="794">  │   ├─┬ readable-stream@2.2.9 </tspan>
<tspan x="10" y="810">  │   │ ├── buffer-shims@1.0.0 </tspan>
<tspan x="10" y="826">  │   │ ├── core-util-is@1.0.2 </tspan>
<tspan x="10" y="842">  │   │ ├── process-nextick-args@1.0.7 </tspan>
<tspan x="10" y="858">  │   │ ├── string_decoder@1.0.0 </tspan>
<tspan x="10" y="874">  │   │ └── util-deprecate@1.0.2 </tspan>
<tspan x="10" y="890">  │   └── set-immediate-shim@1.0.1 </tspan>
<tspan x="10" y="906">  ├─┬ commander@2.9.0 </tspan>
<tspan x="10" y="922">  │ └── graceful-readlink@1.0.1 </tspan>
<tspan x="10" y="938">  ├─┬ doctrine@2.0.0 </tspan>
<tspan x="10" y="954">  │ ├── esutils@2.0.2 </tspan>
<tspan x="10" y="970">  │ └── isarray@1.0.0 </tspan>
<tspan x="10" y="986">  ├─┬ glob@7.1.1 </tspan>
<tspan x="10" y="1002">  │ ├── fs.realpath@1.0.0 </tspan>
<tspan x="10" y="1018">  │ ├─┬ inflight@1.0.6 </tspan>
<tspan x="10" y="1034">  │ │ └── wrappy@1.0.2 </tspan>
<tspan x="10" y="1050">  │ ├─┬ minimatch@3.0.3 </tspan>
<tspan x="10" y="1066">  │ │ └─┬ brace-expansion@1.1.7 </tspan>
<tspan x="10" y="1082">  │ │   ├── balanced-match@0.4.2 </tspan>
<tspan x="10" y="1098">  │ │   └── concat-map@0.0.1 </tspan>
<tspan x="10" y="1114">  │ └── once@1.4.0 </tspan>
<tspan x="10" y="1130">  ├─┬ js-yaml@3.8.3 </tspan>
<tspan x="10" y="1146">  │ ├─┬ argparse@1.0.9 </tspan>
<tspan x="10" y="1162">  │ │ └── sprintf-js@1.0.3 </tspan>
<tspan x="10" y="1178">  │ └── esprima@3.1.3 </tspan>
<tspan x="10" y="1194">  ├── recursive-iterator@2.0.3 </tspan>
<tspan x="10" y="1210">  └─┬ swagger-parser@3.4.1 </tspan>
<tspan x="10" y="1226">    ├── call-me-maybe@1.0.1 </tspan>
<tspan x="10" y="1242">    ├─┬ debug@2.6.4 </tspan>
<tspan x="10" y="1258">    │ └── ms@0.7.3 </tspan>
<tspan x="10" y="1274">    ├── es6-promise@3.3.1 </tspan>
<tspan x="10" y="1290">    ├── json-schema-ref-parser@1.4.1 </tspan>
<tspan x="10" y="1306">    ├── ono@2.2.4 </tspan>
<tspan x="10" y="1322">    ├── swagger-methods@1.0.0 </tspan>
<tspan x="10" y="1338">    ├── swagger-schema-official@2.0.0-bab6bed </tspan>
<tspan x="10" y="1354">    └─┬ z-schema@3.18.2 </tspan>
<tspan x="10" y="1370">      ├── lodash.get@4.4.2 </tspan>
<tspan x="10" y="1386">      ├── lodash.isequal@4.5.0 </tspan>
<tspan x="10" y="1402">      └── validator@6.3.0</tspan>
</text>
</svg>
